<svg enable-background="new 0 0 256 256" height="512" viewBox="0 0 256 256" width="512" xmlns="http://www.w3.org/2000/svg"><g id="Layer_5"><g><g><g><path d="m194.144 24.202h-125.618c-10.298 0-18.676 8.378-18.676 18.676v41.572c0 10.298 8.378 18.676 18.676 18.676h15.076c.004-4.133.006-6.843.006-6.86 0-4.118 3.338-7.456 7.456-7.456s7.456 3.338 7.456 7.456v6.86h95.624c10.298 0 18.676-8.378 18.676-18.676v-41.572c0-10.298-8.378-18.676-18.676-18.676z" fill="#f98fa6"/></g></g><g><g><path d="m194.144 34.202h-125.618c-4.772 0-8.676 3.904-8.676 8.676v41.572c0 4.772 3.904 8.676 8.676 8.676h15.783c1.186-2.547 3.761-4.316 6.756-4.316 2.994 0 5.57 1.769 6.756 4.316h96.324c4.772 0 8.676-3.904 8.676-8.676v-41.572c-.001-4.772-3.905-8.676-8.677-8.676z" fill="#fc657e"/></g></g><g><g><path d="m77.51 212.402v11.113h67.559v-11.113c0-1.329-1.078-2.407-2.407-2.407h-62.746c-1.329.001-2.406 1.078-2.406 2.407z" fill="#dae6f1"/></g></g><g><g><path d="m146.514 223.515h-69.274c-2.447 0-4.43 1.983-4.43 4.43v21.113c0 2.446 1.983 4.429 4.429 4.43l69.274.013c2.447.001 4.431-1.983 4.431-4.43v-21.126c-.001-2.447-1.984-4.43-4.43-4.43z" fill="#5290db"/></g></g><g><g><path d="m83.608 96.266c0 .071-.042 48.733-.042 48.733 0-4.581-3.749-8.33-8.33-8.33s-8.33 3.748-8.33 8.33v10.387c0 7.796 2.382 15.405 6.827 21.81 3.228 5.593 9.4 10.076 9.96 23.33l.133 9.47h54.454v-18.423c0-7.741 2.409-12.386 3.549-16.512 1.029-3.181 1.553-6.504 1.553-9.847 0-6.308 0-32.74 0-38.191 0-4.129-3.348-7.477-7.477-7.477s-7.477 3.348-7.477 7.477c0-4.129-3.348-7.477-7.477-7.477s-7.477 3.348-7.477 7.477c0-4.129-3.348-7.477-7.477-7.477-4.13 0-7.477 3.348-7.477 7.477v-30.757c0-4.118-3.338-7.456-7.456-7.456s-7.456 3.338-7.456 7.456z" fill="#f9c1a8"/></g></g><g><g><path d="m59.04 180.654c-4.498-.838-8.043-4.31-8.898-8.716-.043-.221-.352-.221-.395 0-.855 4.406-4.4 7.879-8.898 8.716-.226.042-.226.345 0 .387 4.498.838 8.043 4.31 8.898 8.717.043.221.352.221.395 0 .855-4.406 4.4-7.879 8.898-8.717.225-.043.225-.345 0-.387z" fill="#f5c84c"/></g></g><g><g><path d="m139.549 4.761h-2.021v-2.022c0-1.513-1.226-2.739-2.739-2.739s-2.739 1.226-2.739 2.739v2.021h-2.021c-1.513 0-2.739 1.226-2.739 2.739s1.226 2.739 2.739 2.739h2.021v2.021c0 1.513 1.226 2.739 2.739 2.739s2.739-1.226 2.739-2.739v-2.021h2.021c1.513 0 2.739-1.226 2.739-2.739s-1.226-2.738-2.739-2.738z" fill="#70d6f9"/></g></g><g><g><path d="m176.276 205.487h-2.33v-2.33c0-1.744-1.413-3.157-3.157-3.157s-3.157 1.413-3.157 3.157v2.33h-2.329c-1.744 0-3.157 1.413-3.157 3.157s1.413 3.157 3.157 3.157h2.329v2.33c0 1.744 1.413 3.157 3.157 3.157s3.157-1.413 3.157-3.157v-2.33h2.33c1.744 0 3.157-1.413 3.157-3.157s-1.413-3.157-3.157-3.157z" fill="#fc657e"/></g></g><g><g><circle cx="158.997" cy="11.377" fill="#f5c84c" r="3.377"/></g></g><g><g><circle cx="158.997" cy="184.377" fill="#87d147" r="3.377"/></g></g><g><g><path d="m145.068 225.167c-1.381 0-2.5-1.119-2.5-2.5v-10.171h-62.558v10.129c0 1.381-1.119 2.5-2.5 2.5s-2.5-1.119-2.5-2.5v-10.223c0-2.706 2.201-4.907 4.906-4.907h62.746c2.705 0 4.906 2.201 4.906 4.907v10.265c0 1.381-1.119 2.5-2.5 2.5z"/></g></g><g><g><path d="m146.514 256c-.001 0-.001 0-.002 0l-69.272-.013c-3.821-.001-6.93-3.11-6.93-6.93v-21.112c0-3.821 3.109-6.93 6.931-6.93h69.273c3.821 0 6.93 3.108 6.93 6.93v21.125c0 1.851-.721 3.592-2.03 4.9-1.31 1.309-3.05 2.03-4.9 2.03zm-69.274-29.985c-1.064 0-1.931.866-1.931 1.93v21.112c0 1.064.866 1.93 1.931 1.93l69.273.013h.001c.516 0 1-.201 1.364-.565.364-.365.565-.849.565-1.365v-21.125c0-1.064-.865-1.93-1.93-1.93z"/></g></g><g><g><path d="m83.566 155.412c-1.381 0-2.5-1.119-2.5-2.5v-8.116c0-1.381 1.119-2.5 2.5-2.5s2.5 1.119 2.5 2.5v8.116c0 1.381-1.119 2.5-2.5 2.5z"/></g></g><g><g><path d="m98.521 138.496c-1.381 0-2.5-1.119-2.5-2.5v-8.974c0-1.381 1.119-2.5 2.5-2.5s2.5 1.119 2.5 2.5v8.974c0 1.381-1.12 2.5-2.5 2.5z"/></g></g><g><g><path d="m113.475 138.496c-1.381 0-2.5-1.119-2.5-2.5v-8.974c0-1.381 1.119-2.5 2.5-2.5s2.5 1.119 2.5 2.5v8.974c0 1.381-1.12 2.5-2.5 2.5z"/></g></g><g><g><path d="m128.429 138.496c-1.381 0-2.5-1.119-2.5-2.5v-8.974c0-1.381 1.119-2.5 2.5-2.5s2.5 1.119 2.5 2.5v8.974c0 1.381-1.119 2.5-2.5 2.5z"/></g></g><g><g><g><path d="m98.86 62.807c1.179-.489 2.198-1.224 3.042-2.195 1.217-1.399 1.833-3.243 1.833-5.48 0-4.938-3.185-8.743-10.616-8.743h-12.084c-.276 0-.5.224-.5.5v33.019c0 .276.224.5.5.5h12.271c7.643 0 11.178-4.138 11.178-9.399 0-3.898-2.392-6.929-5.624-8.202zm-6.444-1.947h-6.619v-9.959h6.432c4.449 0 6.151 2.04 6.151 4.933 0 3.518-2.417 5.026-5.964 5.026zm-6.619 4.185h6.619c2.118 0 3.784.489 4.951 1.455 1.153.955 1.715 2.246 1.715 3.947 0 3.796-2.762 5.401-6.572 5.401h-6.713z"/></g></g><g><g><path d="m127.542 46.388h-18.219c-.276 0-.5.224-.5.5v33.019c0 .276.224.5.5.5h18.219c.276 0 .5-.224.5-.5v-3.466c0-.276-.224-.5-.5-.5h-13.457v-10.521h12.053c.276 0 .5-.224.5-.5v-3.279c0-.276-.224-.5-.5-.5h-12.053v-10.287h13.457c.276 0 .5-.224.5-.5v-3.466c0-.276-.224-.5-.5-.5z"/></g></g><g><g><path d="m153.256 46.388h-22.903c-.276 0-.5.224-.5.5v3.466c0 .276.224.5.5.5h8.82v29.053c0 .276.224.5.5.5h4.263c.276 0 .5-.224.5-.5v-29.053h8.82c.276 0 .5-.224.5-.5v-3.466c0-.276-.224-.5-.5-.5z"/></g></g><g><g><path d="m184.634 79.731-12.177-32.41c-.073-.195-.26-.324-.468-.324h-4.824c-.208 0-.395.129-.468.324l-12.225 32.41c-.058.153-.037.326.057.46.094.135.247.216.411.216h4.59c.211 0 .398-.132.47-.33l2.645-7.305h13.817l2.645 7.305c.071.198.259.33.47.33h4.59c.164 0 .317-.081.411-.215s.113-.307.056-.461zm-9.752-11.283h-10.657l5.329-14.706z"/></g></g></g><g><g><path d="m138.281 211.792c-1.381 0-2.5-1.119-2.5-2.5v-17.719c0-6.298 1.493-10.693 2.693-14.225.355-1.046.691-2.034.946-2.953.009-.035.02-.069.03-.104.95-2.936 1.432-5.99 1.432-9.078v-38.191c0-2.744-2.232-4.977-4.977-4.977s-4.978 2.233-4.978 4.977c0 1.381-1.119 2.5-2.5 2.5s-2.5-1.119-2.5-2.5c0-2.744-2.232-4.977-4.977-4.977s-4.978 2.233-4.978 4.977c0 1.381-1.119 2.5-2.5 2.5s-2.5-1.119-2.5-2.5c0-2.744-2.232-4.977-4.977-4.977s-4.978 2.233-4.978 4.977c0 1.381-1.119 2.5-2.5 2.5s-2.5-1.119-2.5-2.5v-30.756c0-2.733-2.224-4.956-4.956-4.956s-4.956 2.223-4.956 4.956c0 .07-.042 48.735-.042 48.735-.001 1.38-1.12 2.498-2.5 2.498h-.001c-1.381 0-2.499-1.12-2.499-2.5 0-3.215-2.615-5.83-5.83-5.83s-5.83 2.615-5.83 5.83v10.387c0 7.321 2.206 14.37 6.381 20.384.04.057.077.115.111.175.697 1.208 1.588 2.416 2.531 3.696 3.253 4.415 7.303 9.909 7.762 20.779l.124 8.753c.02 1.38-1.084 2.516-2.465 2.535-1.363.035-2.516-1.084-2.535-2.464l-.122-8.683c-.393-9.273-3.645-13.686-6.789-17.953-1.007-1.366-1.959-2.658-2.783-4.072-4.721-6.837-7.215-14.84-7.215-23.15v-10.387c0-5.972 4.858-10.83 10.83-10.83 2.148 0 4.152.628 5.838 1.712.012-14.072.034-39.493.034-39.616 0-5.489 4.466-9.955 9.956-9.955s9.956 4.466 9.956 9.956v22.112c1.466-.847 3.166-1.333 4.978-1.333 2.974 0 5.647 1.308 7.477 3.378 1.83-2.07 4.504-3.378 7.478-3.378s5.647 1.308 7.477 3.378c1.83-2.07 4.504-3.378 7.478-3.378 5.501 0 9.977 4.476 9.977 9.977v38.191c0 3.594-.558 7.148-1.657 10.566-.29 1.041-.644 2.079-1.017 3.177-1.138 3.349-2.428 7.144-2.428 12.616v17.719c.001 1.382-1.118 2.501-2.499 2.501z"/></g></g><g><g><path d="m194.144 105.626h-94.727c-1.381 0-2.5-1.119-2.5-2.5s1.119-2.5 2.5-2.5h94.727c8.919 0 16.176-7.256 16.176-16.176v-41.573c0-8.919-7.257-16.176-16.176-16.176h-125.619c-8.919 0-16.176 7.256-16.176 16.176v41.573c0 8.919 7.257 16.176 16.176 16.176h14.267c1.381 0 2.5 1.119 2.5 2.5s-1.119 2.5-2.5 2.5h-14.267c-11.677 0-21.176-9.5-21.176-21.176v-41.573c0-11.676 9.499-21.176 21.176-21.176h125.618c11.677 0 21.176 9.5 21.176 21.176v41.573c0 11.676-9.499 21.176-21.175 21.176z"/></g></g><g><g><path d="m194.144 95.626h-95.675c-1.381 0-2.5-1.119-2.5-2.5s1.119-2.5 2.5-2.5h95.675c3.405 0 6.176-2.771 6.176-6.176v-41.573c0-3.405-2.771-6.176-6.176-6.176h-125.619c-3.405 0-6.176 2.771-6.176 6.176v41.573c0 3.405 2.771 6.176 6.176 6.176h14.943c1.381 0 2.5 1.119 2.5 2.5s-1.119 2.5-2.5 2.5h-14.943c-6.162 0-11.176-5.014-11.176-11.176v-41.573c0-6.163 5.014-11.176 11.176-11.176h125.618c6.162 0 11.176 5.013 11.176 11.176v41.573c0 6.162-5.013 11.176-11.175 11.176z"/></g></g></g></g></svg>